<svg width="80" height="80" viewBox="0 0 80 80" fill="none" xmlns="http://www.w3.org/2000/svg">
<rect width="80" height="80" rx="24" fill="#FFDAD7"/>
<path d="M31.5804 60.0117L42.5253 12.5001" stroke="black" stroke-width="2" stroke-linecap="round"/>
<path d="M42.3875 12.5L53.3324 60.0116" stroke="black" stroke-width="2" stroke-linecap="round"/>
<path fill-rule="evenodd" clip-rule="evenodd" d="M12.5 59.7986C12.5 64.1607 16.9082 67.6969 22.3459 67.6969C27.7837 67.6969 32.1919 64.1607 32.1919 59.7987L30.8282 59.7986C30.8282 63.1662 27.3109 66.3486 22.3459 66.3486C17.381 66.3486 13.8636 63.1663 13.8636 59.7987L12.5 59.7986Z" fill="black"/>
<path fill-rule="evenodd" clip-rule="evenodd" d="M51.87 50.4235L51.5453 49.0137C48.4688 48.5816 45.1536 48.3462 41.6983 48.3462C25.5725 48.3462 12.5 53.4736 12.5 59.7986C12.5 59.9308 12.5057 60.0624 12.517 60.1936H13.888C13.8716 60.0607 13.8636 59.929 13.8636 59.7986C13.8636 58.7118 14.4196 57.537 15.7274 56.3242C17.0376 55.1093 19.0072 53.953 21.5548 52.9538C26.6421 50.9584 33.7633 49.6945 41.6983 49.6945C45.2938 49.6945 48.7222 49.954 51.87 50.4235Z" fill="#B22930"/>
<path d="M54.7922 48.6787L51.9889 49.5524C51.4485 49.7208 50.9083 49.4145 50.7825 48.8683L43.1369 15.6788L46.9187 14.5001C56.2557 11.5901 65.5874 16.8821 67.7616 26.3203C69.9358 35.7584 64.1292 45.7686 54.7922 48.6787Z" stroke="#B22930" stroke-width="2"/>
</svg>
