<svg width="500" height="369" viewBox="0 0 500 369" fill="none" xmlns="http://www.w3.org/2000/svg">
<g filter="url(#filter0_i_3_63)">
<path opacity="0.1" d="M5.84622 196.128C13.7443 229.897 30.4641 259.088 56.8881 273.237C111.802 302.642 235.646 287.478 328.076 270.052C374.78 261.276 417.174 237.033 448.43 201.226L5.84622 196.128Z" fill="#B22930"/>
<path opacity="0.1" d="M490.537 37.1868H439.823C438.66 37.1868 437.545 36.7248 436.723 35.9025C435.901 35.0802 435.439 33.9648 435.439 32.8019C435.439 31.6389 435.901 30.5236 436.723 29.7012C437.545 28.8789 438.66 28.4169 439.823 28.4169H448.59C447.427 28.4169 446.312 27.9549 445.49 27.1326C444.668 26.3103 444.206 25.1949 444.206 24.032C444.206 22.869 444.668 21.7537 445.49 20.9313C446.312 20.109 447.427 19.647 448.59 19.647H442.329C441.167 19.647 440.052 19.185 439.23 18.3627C438.408 17.5403 437.946 16.425 437.946 15.262C437.946 14.0991 438.408 12.9837 439.23 12.1614C440.052 11.3391 441.167 10.8771 442.329 10.8771H468.799C462.925 8.14643 456.06 6.20313 448.153 5.18368C375.978 -4.0914 350.209 2.04344 341.119 8.36944C329.904 16.1518 317.393 21.877 304.022 24.635C259.49 33.8236 176.21 44.8827 100.728 21.0942C63.212 9.26145 35.3276 29.2498 18.6169 62.6364H499.34C498.712 52.9335 496.834 43.977 493.385 36.131C492.593 36.8132 491.582 37.1879 490.537 37.1868Z" fill="#B22930"/>
<path opacity="0.1" d="M1.54231 125.655C-0.405776 145.294 0.255112 165.104 3.50774 184.569L448.767 200.857C461.162 186.594 471.569 170.719 479.704 153.662L1.54231 125.655ZM177.648 167.684H168.881C170.043 167.684 171.158 168.146 171.98 168.969C172.802 169.791 173.264 170.906 173.264 172.069C173.264 173.232 172.802 174.348 171.98 175.17C171.158 175.992 170.043 176.454 168.881 176.454H118.167C117.004 176.454 115.889 175.992 115.067 175.17C114.245 174.348 113.783 173.232 113.783 172.069C113.783 170.906 114.245 169.791 115.067 168.969C115.889 168.146 117.004 167.684 118.167 167.684H126.934C125.771 167.684 124.656 167.222 123.834 166.4C123.012 165.578 122.55 164.462 122.55 163.299C122.55 162.136 123.012 161.021 123.834 160.199C124.656 159.376 125.771 158.914 126.934 158.914H120.673C119.511 158.914 118.396 158.452 117.574 157.63C116.752 156.808 116.29 155.692 116.29 154.529C116.29 153.366 116.752 152.251 117.574 151.429C118.396 150.606 119.511 150.144 120.673 150.144H171.388C172.55 150.144 173.665 150.606 174.487 151.429C175.309 152.251 175.771 153.366 175.771 154.529C175.771 155.692 175.309 156.808 174.487 157.63C173.665 158.452 172.55 158.914 171.388 158.914H177.648C178.81 158.914 179.925 159.376 180.747 160.199C181.57 161.021 182.031 162.136 182.031 163.299C182.031 164.462 181.57 165.578 180.747 166.4C179.925 167.222 178.81 167.684 177.648 167.684Z" fill="#B22930"/>
<path opacity="0.1" d="M499.363 62.9368L13.2439 74.7696C7.33394 89.9702 3.43494 107.16 1.6151 124.982H490.846C494.04 114.515 496.403 103.813 497.912 92.9739C499.368 82.4973 499.95 72.3712 499.363 62.9368ZM100.305 101.694H91.5378C92.7003 101.694 93.8153 102.156 94.6374 102.978C95.4595 103.8 95.9213 104.916 95.9213 106.079C95.9213 107.242 95.4595 108.357 94.6374 109.179C93.8153 110.002 92.7003 110.464 91.5378 110.464H40.8235C39.6609 110.464 38.5459 110.002 37.7239 109.179C36.9018 108.357 36.4399 107.242 36.4399 106.079C36.4399 104.916 36.9018 103.8 37.7239 102.978C38.5459 102.156 39.6609 101.694 40.8235 101.694H49.5905C48.428 101.694 47.313 101.232 46.4909 100.409C45.6688 99.5871 45.207 98.4717 45.207 97.3088C45.207 96.1458 45.6688 95.0305 46.4909 94.2081C47.313 93.3858 48.428 92.9238 49.5905 92.9238H43.3303C42.1677 92.9238 41.0527 92.4618 40.2307 91.6395C39.4086 90.8172 38.9468 89.7018 38.9468 88.5389C38.9468 87.3759 39.4086 86.2606 40.2307 85.4382C41.0527 84.6159 42.1677 84.1539 43.3303 84.1539H94.0446C95.2072 84.1539 96.3221 84.6159 97.1442 85.4382C97.9663 86.2606 98.4281 87.3759 98.4281 88.5389C98.4281 89.7018 97.9663 90.8172 97.1442 91.6395C96.3221 92.4618 95.2072 92.9238 94.0446 92.9238H100.305C101.467 92.9238 102.582 93.3858 103.404 94.2081C104.227 95.0305 104.688 96.1458 104.688 97.3088C104.688 98.4717 104.227 99.5871 103.404 100.409C102.582 101.232 101.467 101.694 100.305 101.694Z" fill="#B22930"/>
<g opacity="0.1">
<path d="M308.712 284.114C308.712 284.114 321.542 252.484 345.5 240.752C355.585 235.901 363.824 227.908 368.981 217.974C371.39 213.234 373.359 208.282 374.864 203.183" stroke="#535461" stroke-width="2" stroke-miterlimit="10"/>
<path d="M389.918 195.696C387.42 198.836 374.495 203.433 374.495 203.433C374.495 203.433 376.051 189.78 378.549 186.662C379.789 185.284 381.508 184.43 383.355 184.276C385.203 184.122 387.04 184.679 388.491 185.833C389.942 186.987 390.898 188.652 391.164 190.488C391.43 192.323 390.986 194.191 389.923 195.71L389.918 195.696Z" fill="#B22930"/>
<path d="M385.482 220.572C381.679 221.851 368.339 218.67 368.339 218.67C368.339 218.67 377.052 208.075 380.855 206.796C382.642 206.322 384.543 206.546 386.171 207.422C387.799 208.299 389.033 209.762 389.622 211.515C390.211 213.269 390.111 215.18 389.342 216.862C388.573 218.545 387.193 219.871 385.482 220.572Z" fill="#B22930"/>
<path d="M361.433 249.972C357.507 249.158 347.593 239.673 347.593 239.673C347.593 239.673 360.459 234.926 364.39 235.741C366.169 236.237 367.693 237.39 368.653 238.968C369.614 240.546 369.939 242.429 369.563 244.238C369.187 246.046 368.138 247.644 366.629 248.708C365.119 249.772 363.262 250.222 361.433 249.968V249.972Z" fill="#B22930"/>
<path d="M338.23 268.122C334.222 267.981 322.848 260.312 322.848 260.312C322.848 260.312 334.732 253.472 338.74 253.599C339.736 253.568 340.728 253.742 341.654 254.11C342.58 254.478 343.421 255.032 344.124 255.739C344.828 256.445 345.378 257.288 345.743 258.216C346.107 259.144 346.277 260.137 346.242 261.133C346.207 262.129 345.968 263.108 345.54 264.008C345.111 264.908 344.502 265.71 343.751 266.366C343 267.021 342.123 267.515 341.173 267.817C340.223 268.119 339.222 268.223 338.23 268.122Z" fill="#B22930"/>
<path d="M355.919 209.782C356.433 213.764 365.118 224.377 365.118 224.377C365.118 224.377 370.837 211.907 370.328 207.925C369.972 206.11 368.94 204.499 367.441 203.418C365.941 202.337 364.087 201.867 362.254 202.103C360.421 202.339 358.746 203.264 357.57 204.69C356.393 206.116 355.803 207.936 355.919 209.782Z" fill="#B22930"/>
<path d="M329.049 231.349C330.728 234.99 342.193 242.522 342.193 242.522C342.193 242.522 343.922 228.91 342.243 225.269C341.885 224.34 341.341 223.494 340.643 222.783C339.946 222.073 339.11 221.513 338.188 221.139C337.265 220.764 336.276 220.583 335.281 220.606C334.286 220.629 333.306 220.856 332.402 221.273C331.498 221.69 330.689 222.288 330.025 223.03C329.362 223.772 328.857 224.642 328.543 225.587C328.229 226.532 328.111 227.531 328.198 228.523C328.286 229.515 328.575 230.478 329.049 231.354V231.349Z" fill="#B22930"/>
<path d="M305.81 255.898C306.847 259.775 316.879 269.132 316.879 269.132C316.879 269.132 320.883 256.012 319.841 252.134C319.245 250.385 318.007 248.928 316.378 248.058C314.748 247.188 312.849 246.97 311.065 247.449C309.281 247.928 307.745 249.067 306.77 250.635C305.794 252.204 305.451 254.085 305.81 255.898Z" fill="#B22930"/>
<path opacity="0.25" d="M389.918 195.696C387.42 198.836 374.495 203.433 374.495 203.433C374.495 203.433 376.051 189.78 378.549 186.662C379.789 185.284 381.508 184.43 383.355 184.276C385.203 184.122 387.04 184.679 388.491 185.833C389.942 186.987 390.898 188.652 391.164 190.488C391.43 192.323 390.986 194.191 389.923 195.71L389.918 195.696Z" fill="black"/>
<path opacity="0.25" d="M385.482 220.572C381.679 221.851 368.339 218.67 368.339 218.67C368.339 218.67 377.052 208.075 380.855 206.796C382.642 206.322 384.543 206.546 386.171 207.422C387.799 208.299 389.033 209.762 389.622 211.515C390.211 213.269 390.111 215.18 389.342 216.862C388.573 218.545 387.193 219.871 385.482 220.572Z" fill="black"/>
<path opacity="0.25" d="M361.433 249.972C357.507 249.158 347.593 239.673 347.593 239.673C347.593 239.673 360.459 234.926 364.39 235.741C366.169 236.237 367.693 237.39 368.653 238.968C369.614 240.546 369.939 242.429 369.563 244.238C369.187 246.046 368.138 247.644 366.629 248.708C365.119 249.772 363.262 250.222 361.433 249.968V249.972Z" fill="black"/>
<path opacity="0.25" d="M338.23 268.122C334.222 267.981 322.848 260.312 322.848 260.312C322.848 260.312 334.732 253.472 338.74 253.599C339.736 253.568 340.728 253.742 341.654 254.11C342.58 254.478 343.421 255.032 344.124 255.739C344.828 256.445 345.378 257.288 345.743 258.216C346.107 259.144 346.277 260.137 346.242 261.133C346.207 262.129 345.968 263.108 345.54 264.008C345.111 264.908 344.502 265.71 343.751 266.366C343 267.021 342.123 267.515 341.173 267.817C340.223 268.119 339.222 268.223 338.23 268.122Z" fill="black"/>
<path opacity="0.25" d="M355.919 209.782C356.433 213.764 365.118 224.377 365.118 224.377C365.118 224.377 370.837 211.907 370.328 207.925C369.972 206.11 368.94 204.499 367.441 203.418C365.941 202.337 364.087 201.867 362.254 202.103C360.421 202.339 358.746 203.264 357.57 204.69C356.393 206.116 355.803 207.936 355.919 209.782Z" fill="black"/>
<path opacity="0.25" d="M329.049 231.349C330.728 234.99 342.193 242.522 342.193 242.522C342.193 242.522 343.922 228.91 342.243 225.269C341.885 224.34 341.341 223.494 340.643 222.783C339.946 222.073 339.11 221.513 338.188 221.139C337.265 220.764 336.276 220.583 335.281 220.606C334.286 220.629 333.306 220.856 332.402 221.273C331.498 221.69 330.689 222.288 330.025 223.03C329.362 223.772 328.857 224.642 328.543 225.587C328.229 226.532 328.111 227.531 328.198 228.523C328.286 229.515 328.575 230.478 329.049 231.354V231.349Z" fill="black"/>
<path opacity="0.25" d="M305.81 255.898C306.847 259.775 316.879 269.132 316.879 269.132C316.879 269.132 320.883 256.012 319.841 252.134C319.245 250.385 318.007 248.928 316.378 248.058C314.748 247.188 312.849 246.97 311.065 247.449C309.281 247.928 307.745 249.067 306.77 250.635C305.794 252.204 305.451 254.085 305.81 255.898Z" fill="black"/>
</g>
<g opacity="0.1">
<path d="M299.613 237.866C299.613 237.866 301.233 203.77 319.945 184.751C327.837 176.821 332.946 166.545 334.504 155.465C335.206 150.198 335.423 144.879 335.155 139.572" stroke="#535461" stroke-width="2" stroke-miterlimit="10"/>
<path d="M346.929 127.517C345.614 131.308 334.941 139.923 334.941 139.923C334.941 139.923 331.893 126.547 333.207 122.756C333.468 121.792 333.925 120.891 334.548 120.111C335.171 119.331 335.949 118.687 336.832 118.22C337.714 117.753 338.684 117.473 339.68 117.397C340.675 117.321 341.676 117.45 342.62 117.778C343.563 118.105 344.429 118.623 345.164 119.299C345.899 119.976 346.486 120.796 346.891 121.71C347.295 122.623 347.507 123.61 347.513 124.609C347.52 125.608 347.321 126.598 346.929 127.517Z" fill="#B22930"/>
<path d="M350.969 152.438C347.784 154.905 334.163 156.334 334.163 156.334C334.163 156.334 338.872 143.445 342.034 140.979C342.778 140.317 343.649 139.815 344.595 139.504C345.54 139.192 346.539 139.078 347.531 139.169C348.522 139.259 349.484 139.552 350.358 140.029C351.232 140.506 351.998 141.157 352.61 141.942C353.223 142.727 353.667 143.629 353.917 144.593C354.167 145.557 354.216 146.562 354.062 147.546C353.909 148.529 353.555 149.471 353.023 150.313C352.491 151.154 351.792 151.878 350.969 152.438Z" fill="#B22930"/>
<path d="M338.025 188.173C334.049 188.706 321.556 183.049 321.556 183.049C321.556 183.049 332.125 174.302 336.115 173.769C337.091 173.573 338.097 173.58 339.07 173.788C340.044 173.997 340.965 174.403 341.775 174.981C342.586 175.56 343.269 176.299 343.782 177.152C344.296 178.005 344.629 178.954 344.762 179.942C344.894 180.929 344.822 181.933 344.551 182.891C344.28 183.849 343.815 184.742 343.186 185.513C342.556 186.285 341.775 186.919 340.89 187.377C340.006 187.834 339.037 188.105 338.044 188.173H338.025Z" fill="#B22930"/>
<path d="M322.152 212.99C318.321 214.187 305.05 210.715 305.05 210.715C305.05 210.715 313.985 200.306 317.816 199.109C319.614 198.671 321.511 198.933 323.122 199.844C324.733 200.754 325.937 202.244 326.49 204.011C327.042 205.777 326.901 207.688 326.095 209.354C325.289 211.021 323.879 212.317 322.152 212.981V212.99Z" fill="#B22930"/>
<path d="M319.5 152.083C321.319 155.669 333.021 162.801 333.021 162.801C333.021 162.801 334.281 149.148 332.48 145.552C331.545 143.955 330.037 142.773 328.262 142.248C326.487 141.723 324.579 141.893 322.926 142.725C321.273 143.557 319.998 144.988 319.362 146.726C318.725 148.464 318.774 150.38 319.5 152.083Z" fill="#B22930"/>
<path d="M301.301 181.347C304.095 184.227 317.407 187.527 317.407 187.527C317.407 187.527 314.527 174.115 311.733 171.234C310.364 169.988 308.571 169.311 306.72 169.34C304.868 169.37 303.098 170.104 301.769 171.393C300.439 172.682 299.651 174.429 299.564 176.279C299.477 178.129 300.099 179.943 301.301 181.351V181.347Z" fill="#B22930"/>
<path d="M287.516 212.212C289.791 215.525 302.348 221.027 302.348 221.027C302.348 221.027 301.774 207.32 299.509 204.006C298.363 202.571 296.716 201.621 294.9 201.349C293.083 201.076 291.231 201.501 289.714 202.537C288.198 203.574 287.129 205.145 286.722 206.937C286.315 208.729 286.6 210.608 287.52 212.198L287.516 212.212Z" fill="#B22930"/>
</g>
<path opacity="0.1" d="M136.824 353.509C154.713 359.526 176.538 355.867 196.833 356.29C199.613 356.349 202.552 356.522 204.782 357.56C207.011 358.597 208.107 360.29 209.636 361.724C215.323 367.09 226.975 368.814 237.161 367.904C247.348 366.994 256.688 363.981 266.278 361.687C282.894 357.719 301.888 355.917 318.276 360.24C319.782 360.636 321.365 361.091 322.975 360.937C326.57 360.582 327.639 357.705 330.15 356.062C334.7 353.095 344.541 353.901 346.529 349.991C347.698 347.716 345.009 345.349 342.084 343.784C330.883 337.794 314.859 336.807 300.2 337.731C285.541 338.654 271.128 341.203 256.392 341.212C238.035 341.212 220.296 337.303 202.116 335.701C189.522 334.59 175.778 334.727 163.972 337.976C151.21 341.535 148.389 349.472 136.824 353.509Z" fill="#B22930"/>
<path d="M169.932 84.6045H166.747V129.66H169.932V84.6045Z" fill="#535461"/>
<path d="M169.932 145.134H166.747V170.62H169.932V145.134Z" fill="#535461"/>
<path d="M290.905 40.459H190.45C178.616 40.459 169.022 50.0561 169.022 61.8946V330.317C169.022 342.155 178.616 351.752 190.45 351.752H290.905C302.74 351.752 312.334 342.155 312.334 330.317V61.8946C312.334 50.0561 302.74 40.459 290.905 40.459Z" fill="#535461"/>
<path d="M290.905 55.0225H190.45C178.616 55.0225 169.022 64.6195 169.022 76.458V317.119C169.022 328.957 178.616 338.554 190.45 338.554H290.905C302.74 338.554 312.334 328.957 312.334 317.119V76.458C312.334 64.6195 302.74 55.0225 290.905 55.0225Z" fill="#B22930"/>
<path d="M251.142 47.2856H230.669C229.789 47.2856 229.076 47.9988 229.076 48.8785C229.076 49.7582 229.789 50.4714 230.669 50.4714H251.142C252.021 50.4714 252.734 49.7582 252.734 48.8785C252.734 47.9988 252.021 47.2856 251.142 47.2856Z" fill="#EAEAF3"/>
<path d="M260.924 51.3816C262.18 51.3816 263.198 50.3628 263.198 49.1061C263.198 47.8493 262.18 46.8306 260.924 46.8306C259.667 46.8306 258.649 47.8493 258.649 49.1061C258.649 50.3628 259.667 51.3816 260.924 51.3816Z" fill="#EAEAF3"/>
<path d="M203.508 180.723V213.946C203.519 214.988 203.324 216.021 202.932 216.987C202.541 217.952 201.961 218.83 201.228 219.569C200.494 220.309 199.621 220.895 198.659 221.294C197.696 221.692 196.665 221.896 195.623 221.892C191.237 221.892 186.979 218.338 186.979 213.946V180.723C186.979 176.391 191.224 172.836 195.623 172.836C197.712 172.845 199.712 173.678 201.189 175.155C202.666 176.633 203.499 178.634 203.508 180.723ZM206.606 225.751C206.604 226.867 206.821 227.972 207.247 229.002C207.673 230.033 208.297 230.97 209.086 231.759C209.874 232.547 210.811 233.172 211.841 233.598C212.872 234.024 213.976 234.242 215.091 234.239H220.796L220.883 251.765C220.883 262.347 236.711 262.265 236.711 251.765V234.244H247.375V251.77C247.375 262.297 263.298 262.324 263.298 251.77V234.244H269.09C270.201 234.24 271.3 234.018 272.325 233.589C273.349 233.161 274.28 232.535 275.063 231.746C275.845 230.958 276.465 230.024 276.887 228.996C277.309 227.968 277.524 226.867 277.52 225.756V174.283H206.606V225.751ZM277.712 171.516H206.283C206.283 159.228 213.621 148.57 224.518 143.008L219.058 132.882C218.258 131.476 220.291 130.607 220.978 131.795L226.542 142.007C231.438 139.865 236.724 138.759 242.068 138.759C247.412 138.759 252.698 139.865 257.593 142.007L263.126 131.826C263.844 130.593 265.855 131.512 265.046 132.914L259.586 143.008C270.373 148.57 277.712 159.242 277.712 171.516ZM228.767 155.588C228.767 154.789 228.45 154.022 227.885 153.457C227.32 152.892 226.554 152.575 225.755 152.575C224.977 152.605 224.241 152.935 223.702 153.497C223.162 154.058 222.86 154.807 222.86 155.585C222.86 156.364 223.162 157.113 223.702 157.674C224.241 158.235 224.977 158.566 225.755 158.596C226.552 158.596 227.316 158.28 227.88 157.718C228.445 157.156 228.763 156.393 228.767 155.597V155.588ZM261.283 155.588C261.274 155.001 261.091 154.43 260.758 153.947C260.425 153.465 259.956 153.092 259.411 152.875C258.866 152.659 258.269 152.609 257.695 152.732C257.122 152.855 256.598 153.145 256.189 153.566C255.781 153.987 255.506 154.519 255.4 155.096C255.294 155.673 255.361 156.269 255.593 156.807C255.825 157.346 256.211 157.804 256.703 158.123C257.196 158.442 257.771 158.608 258.358 158.6C259.141 158.582 259.887 158.258 260.434 157.696C260.981 157.135 261.286 156.381 261.283 155.597V155.588ZM288.462 172.827C287.426 172.824 286.399 173.026 285.441 173.421C284.483 173.817 283.613 174.397 282.88 175.13C282.148 175.863 281.567 176.734 281.172 177.692C280.777 178.651 280.575 179.677 280.578 180.714V213.937C280.574 214.977 280.774 216.007 281.168 216.969C281.562 217.931 282.142 218.806 282.874 219.544C283.606 220.282 284.477 220.868 285.436 221.27C286.394 221.671 287.423 221.879 288.462 221.883C292.88 221.883 297.106 218.329 297.106 213.937V180.714C297.093 176.309 292.848 172.836 288.462 172.836V172.827Z" fill="white"/>
<path d="M236.583 259.621H207.011V260.986H236.583V259.621Z" fill="#535461"/>
<path d="M267.065 259.621H247.502V260.986H267.065V259.621Z" fill="#535461"/>
<path d="M200.641 259.621H181.078V260.986H200.641V259.621Z" fill="#535461"/>
<path d="M298.003 259.621H278.439V260.986H298.003V259.621Z" fill="#535461"/>
</g>
<defs>
<filter id="filter0_i_3_63" x="0" y="0" width="500" height="372.182" filterUnits="userSpaceOnUse" color-interpolation-filters="sRGB">
<feFlood flood-opacity="0" result="BackgroundImageFix"/>
<feBlend mode="normal" in="SourceGraphic" in2="BackgroundImageFix" result="shape"/>
<feColorMatrix in="SourceAlpha" type="matrix" values="0 0 0 0 0 0 0 0 0 0 0 0 0 0 0 0 0 0 127 0" result="hardAlpha"/>
<feOffset dy="4"/>
<feGaussianBlur stdDeviation="2"/>
<feComposite in2="hardAlpha" operator="arithmetic" k2="-1" k3="1"/>
<feColorMatrix type="matrix" values="0 0 0 0 0 0 0 0 0 0 0 0 0 0 0 0 0 0 0.25 0"/>
<feBlend mode="normal" in2="shape" result="effect1_innerShadow_3_63"/>
</filter>
</defs>
</svg>
