<?xml version="1.0" ?><!DOCTYPE svg  PUBLIC '-//W3C//DTD SVG 1.1//EN'  'http://www.w3.org/Graphics/SVG/1.1/DTD/svg11.dtd'>
<svg enable-background="new 0 0 32 32" height="32px" version="1.1" viewBox="0 0 32 32" width="32px"
    xml:space="preserve" xmlns="http://www.w3.org/2000/svg"><g id="Twitter"><path d="M30.5,6.99c-1.065,0.485-2.213,0.813-3.416,0.959c1.229-0.753,2.172-1.947,2.616-3.369   c-1.15,0.697-2.422,1.205-3.781,1.477c-1.082-1.184-2.63-1.923-4.342-1.923c-3.283,0-5.947,2.728-5.947,6.092   c0,0.478,0.051,0.941,0.153,1.388C10.839,11.359,6.456,8.936,3.52,5.246c-0.512,0.902-0.805,1.95-0.805,3.066   c0,2.113,1.051,3.978,2.647,5.07c-0.973-0.03-1.893-0.307-2.696-0.76v0.075c0,2.952,2.051,5.415,4.774,5.973   c-0.499,0.143-1.025,0.215-1.568,0.215c-0.383,0-0.757-0.037-1.121-0.108c0.758,2.42,2.954,4.182,5.558,4.229   c-2.036,1.635-4.603,2.61-7.389,2.61c-0.48,0-0.955-0.028-1.42-0.084c2.633,1.726,5.762,2.735,9.121,2.735   c10.945,0,16.927-9.282,16.927-17.333c0-0.265-0.005-0.53-0.015-0.79C28.696,9.285,29.706,8.212,30.5,6.99L30.5,6.99z" fill="#FFFFFF" id="Twitter_3_"/><path d="M29.463,5.153c-1.136,0.706-2.199,2.135-3.543,2.404c-1.082-1.184-2.63-1.923-4.342-1.923   c-2.802,0-5.178,2.012-5.262,5.291c-0.015,0.577-0.462,1.053-1.038,1.086c-2.588,0.146-9.224-0.544-12.409-5.027   C2.775,7.412,2.714,7.854,2.714,8.312c0,2.113,1.051,3.978,2.647,5.07c-0.973-0.03-1.893-0.307-2.696-0.76v0.075   c0,2.952,2.051,5.415,4.774,5.973c-0.499,0.143-1.025,0.215-1.568,0.215c-0.383,0-0.757-0.037-1.121-0.108   c0.758,2.42,2.954,4.182,5.558,4.229c-2.036,1.635-4.603,2.61-7.389,2.61c-0.48,0-0.955-0.028-1.42-0.084   c2.633,1.726,5.762,2.735,9.121,2.735c10.945,0,16.927-9.282,16.927-17.333c0-0.265-0.005-0.53-0.015-0.79   c1.163-0.859,2.172-1.931,2.967-3.153c-1.065,0.485-2.213,0.813-3.416,0.959C28.141,7.302,28.964,6.317,29.463,5.153z" fill="#FFB3AF"/><path d="M10.621,28.767c-3.334,0-6.583-0.974-9.395-2.817c-0.194-0.127-0.275-0.372-0.196-0.589   c0.08-0.218,0.295-0.352,0.53-0.325c0.441,0.054,0.899,0.081,1.36,0.081c1.806,0,3.534-0.417,5.136-1.24   c0.316-0.162,0.626-0.34,0.927-0.532c-2.192-0.509-4.004-2.166-4.709-4.417c-0.083-0.264,0.064-0.544,0.328-0.626   c0.263-0.084,0.544,0.064,0.626,0.328c0.713,2.278,2.759,3.836,5.09,3.878c0.211,0.004,0.396,0.139,0.464,0.338   s0.004,0.419-0.16,0.551c-0.656,0.527-1.366,0.988-2.109,1.37c-1.572,0.807-3.254,1.256-5.01,1.337   c2.215,1.094,4.641,1.665,7.118,1.665c10.283,0,16.427-8.559,16.427-16.833c0-0.258-0.005-0.517-0.014-0.771   c-0.006-0.165,0.069-0.322,0.203-0.421c1.121-0.828,2.079-1.846,2.845-3.023c0.15-0.231,0.461-0.299,0.691-0.146   c0.231,0.15,0.297,0.46,0.146,0.691c-0.783,1.204-1.75,2.254-2.878,3.124c0.004,0.181,0.007,0.364,0.007,0.546   C28.048,19.699,21.53,28.767,10.621,28.767z" fill="#455A64"/><path d="M7.44,19.171c-0.033,0-0.067-0.003-0.101-0.01c-2.998-0.614-5.174-3.333-5.174-6.463   c0-0.276,0.224-0.538,0.5-0.538s0.5,0.186,0.5,0.462v0.075c0,2.658,1.84,4.964,4.375,5.483c0.271,0.055,0.445,0.32,0.389,0.59   C7.881,19.008,7.673,19.171,7.44,19.171z" fill="#455A64"/><path d="M5.361,13.882c-0.097,0-0.196-0.028-0.282-0.087c-1.794-1.228-2.865-3.278-2.865-5.483   c0-1.163,0.301-2.309,0.87-3.313c0.082-0.145,0.23-0.239,0.396-0.252c0.171-0.013,0.327,0.057,0.43,0.187   c2.936,3.689,7.273,5.941,11.899,6.179c0.275,0.014,0.488,0.25,0.474,0.525c-0.014,0.275-0.261,0.483-0.525,0.474   c-4.653-0.24-9.03-2.397-12.126-5.951c-0.274,0.679-0.417,1.41-0.417,2.15c0,1.875,0.908,3.616,2.429,4.658   c0.228,0.156,0.286,0.467,0.13,0.695C5.677,13.806,5.521,13.882,5.361,13.882z" fill="#455A64"/><path d="M15.646,10.281c-0.012,0-0.024,0-0.036-0.001c-0.275-0.019-0.483-0.258-0.463-0.534   c0.242-3.427,3.066-6.112,6.43-6.112c1.687,0,3.314,0.68,4.511,1.876c1.177-0.266,2.304-0.722,3.353-1.357   c0.178-0.107,0.404-0.094,0.567,0.034c0.164,0.128,0.231,0.344,0.169,0.542c-0.476,1.524-1.482,2.819-2.832,3.646   c-0.235,0.144-0.544,0.07-0.688-0.165c-0.145-0.235-0.07-0.543,0.165-0.688c0.746-0.458,1.368-1.083,1.823-1.822   c-0.843,0.381-1.722,0.665-2.628,0.846c-0.17,0.035-0.349-0.023-0.467-0.153c-1.022-1.119-2.471-1.76-3.973-1.76   c-2.841,0-5.228,2.276-5.433,5.182C16.126,10.08,15.907,10.281,15.646,10.281z" fill="#455A64"/></g></svg>